<svg width="1200" height="630" viewBox="0 0 1200 630" fill="none" xmlns="http://www.w3.org/2000/svg">
<rect width="1200" height="630" fill="#F2F5F0"/>
<path d="M324.594 214.196C327.667 215.688 331.781 221.158 333.227 225.723C333.544 226.673 334.041 227.441 334.358 227.441C335.94 227.441 338.155 231.51 338.426 234.9C338.516 236.12 338.968 237.251 339.556 237.883C340.867 239.33 341.861 242.856 341.861 246.246C341.861 248.552 341.997 249.049 342.675 249.23C344.302 249.682 345.207 256.372 344.076 259.988C343.805 260.847 343.624 262.836 343.624 264.373C343.67 267.763 342.449 271.741 340.279 275.493L338.697 278.115L339.827 278.522C340.46 278.748 341.048 279.471 341.229 280.149C341.771 282.274 341.093 286.93 339.918 289.552L338.742 292.083L339.872 293.213C340.46 293.801 340.957 294.615 340.957 294.976C340.957 296.83 339.782 300.762 338.426 303.565C337.07 306.413 336.979 306.729 337.657 307.227C338.742 308.04 338.2 310.978 336.256 314.866C334.448 318.528 331.871 321.647 326.718 326.438C321.339 331.411 320.39 332.902 320.435 335.931C320.48 341.22 316.669 331.817 321.822 338.733C323.269 340.722 324.49 342.756 324.49 343.254C324.49 344.564 321.958 346.011 319.969 345.875C318.568 345.74 318.116 345.378 316.172 342.576C313.279 338.372 309.947 336.373 309.947 336.373L305.291 331.8C305.291 331.8 296.567 325.037 293.855 321.873C291.142 318.663 288.521 313.691 288.521 311.702C288.521 310.843 288.114 309.306 287.571 308.311C286.125 305.418 284.859 299.949 285.356 298.638C285.582 298.005 286.08 297.508 286.441 297.508C286.984 297.508 286.939 297.056 286.17 294.886C285.673 293.485 285.176 291.224 285.04 289.913C284.814 287.924 284.95 287.292 285.763 286.161C286.622 285.031 286.667 284.625 286.26 283.133C285.673 280.963 285.718 278.703 286.441 276.714C287.029 275.041 288.385 274.408 289.018 275.403C289.696 276.533 289.877 275.538 289.425 272.962C288.882 269.526 289.696 266.136 291.097 265.955C292.047 265.82 292.137 265.594 292.137 262.565C292.137 258.451 294.081 253.84 295.075 255.468C295.618 256.372 296.205 255.423 296.205 253.66C296.205 249.998 299.189 243.986 300.455 245.071C300.907 245.433 301.133 244.98 301.359 243.037C301.675 240.234 303.031 236.979 304.387 235.759C305.201 234.99 305.291 234.99 305.924 235.849C306.557 236.663 306.557 236.663 306.602 235.533C306.602 233.589 307.913 230.425 309.405 228.617C310.535 227.215 311.032 226.944 312.072 227.079C313.292 227.26 313.383 227.17 313.383 225.678C313.383 222.197 318.084 215.417 321.384 214.06C323.147 213.292 322.785 213.292 324.594 214.196ZM322.921 217.632C322.966 218.581 322.966 218.581 323.283 217.586C323.554 216.547 323.599 216.547 324.277 217.36C326.04 219.304 327.08 222.197 327.125 225.271C327.17 227.396 327.261 227.984 327.532 227.305C328.074 225.904 327.622 221.971 326.718 220.163C325.724 218.219 323.78 216.095 323.237 216.411C323.057 216.547 322.876 217.089 322.921 217.632ZM322.876 223.373C323.328 224.412 323.328 224.367 323.102 222.966C322.966 222.152 322.831 220.932 322.785 220.253C322.74 219.395 322.695 219.53 322.559 220.66C322.469 221.564 322.605 222.785 322.876 223.373ZM320.209 224.503C320.164 225.769 320.661 227.125 321.746 229.023C323.599 232.233 323.735 231.464 322.198 226.673C321.565 224.729 321.068 222.649 321.022 222.017C321.022 220.977 320.977 220.977 320.616 221.791C320.39 222.288 320.209 223.508 320.209 224.503ZM317.994 227.803C318.129 230.244 318.084 230.56 317.587 229.882C317.27 229.43 316.999 227.938 316.954 226.582C316.909 224.638 316.818 224.322 316.547 225.181C315.553 228.3 316.231 231.69 318.536 235.171C319.305 236.347 320.164 237.657 320.48 238.109C320.977 238.923 320.435 236.347 319.485 233.363C318.898 231.464 320.164 232.821 321.339 235.307L322.424 237.612V235.714C322.424 234.358 321.881 232.821 320.57 230.289C319.033 227.441 318.672 226.311 318.672 224.277C318.672 221.881 318.627 221.881 318.22 223.373C317.994 224.232 317.903 226.266 317.994 227.803ZM329.34 232.911C328.843 233.996 327.984 235.307 327.441 235.759C326.944 236.256 326.492 236.934 326.492 237.296C326.492 238.516 328.752 236.03 329.928 233.544C330.696 231.962 330.967 230.56 330.967 228.797L330.922 226.311L330.56 228.617C330.38 229.837 329.837 231.781 329.34 232.911ZM327.577 231.555C326.628 233.453 326.899 234.81 327.939 233.227C328.933 231.69 329.521 229.43 328.797 229.882C328.526 230.063 327.984 230.832 327.577 231.555ZM310.49 235.804C310.49 238.968 310.716 240.37 311.484 242.087C312.027 243.308 312.434 244.393 312.298 244.483C311.982 244.8 310.716 242.449 310.038 240.279C309.179 237.341 309.134 238.742 309.993 242.133C310.49 243.896 311.349 245.659 312.614 247.241C315.869 251.354 317.451 253.705 317.858 255.197C318.22 256.327 318.265 256.101 318.039 254.112C317.858 251.987 316.954 248.913 315.417 244.845C314.829 243.353 317.496 246.969 318.401 248.913C319.169 250.631 319.259 250.631 319.259 249.456C319.259 247.964 317.677 243.172 316.683 241.635C316.321 241.048 316.095 240.55 316.231 240.55C316.683 240.55 319.305 244.574 319.983 246.337C320.616 248.009 320.616 248.009 320.344 245.071C320.028 241.816 319.305 239.963 316.547 235.578L314.694 232.64L315.01 234.448C315.146 235.442 315.553 236.934 315.914 237.703C316.231 238.516 316.412 239.194 316.321 239.194C315.869 239.194 314.151 235.533 313.654 233.363L313.066 230.832L312.705 233.453C312.524 234.9 312.479 236.934 312.614 237.974L312.84 239.872L312.117 238.29C311.71 237.341 311.394 235.397 311.394 233.453C311.349 231.103 311.213 230.425 310.897 230.967C310.625 231.374 310.445 233.544 310.49 235.804ZM324.82 234.99C324.955 235.442 325.046 235.081 325.046 234.222C325.046 233.363 324.955 233.001 324.82 233.408C324.729 233.86 324.729 234.584 324.82 234.99ZM328.662 240.55C326.221 242.494 325.362 243.67 327.487 242.178C329.069 241.048 329.34 241.319 328.165 242.901C326.356 245.387 326.221 245.749 327.667 244.754C330.56 242.675 333.273 238.381 333.273 235.849C333.273 234.493 333.273 234.538 332.233 236.482C331.645 237.703 330.199 239.33 328.662 240.55ZM328.707 238.019C327.441 239.42 327.08 240.053 327.713 239.692C328.662 239.24 330.38 237.16 331.239 235.578C331.691 234.764 331.419 235.036 328.707 238.019ZM334.312 237.929C334.448 238.29 334.584 238.155 334.584 237.657C334.629 237.16 334.493 236.889 334.358 237.07C334.222 237.205 334.177 237.612 334.312 237.929ZM323.87 241.907C323.87 242.63 324.006 242.359 324.277 241.229C324.458 240.234 324.639 238.788 324.594 238.064C324.594 237.07 324.458 237.205 324.187 238.742C324.006 239.872 323.87 241.274 323.87 241.907ZM328.3 245.116C326.989 246.201 325.678 247.648 325.317 248.326C324.639 249.591 324.458 250.631 325.046 249.772C325.226 249.501 326.492 248.506 327.939 247.648C331.012 245.659 332.866 243.172 333.951 239.646C334.177 238.878 333.77 239.194 332.459 240.822C331.465 242.133 329.566 244.031 328.3 245.116ZM306.557 247.557C306.783 248.416 306.874 249.139 306.783 249.139C306.241 249.139 305.02 245.523 304.749 243.037C304.432 240.596 304.432 240.731 304.523 244.212C304.613 247.783 304.749 248.326 306.15 250.541C307.009 251.897 308.817 254.383 310.219 256.055C311.575 257.773 313.292 260.124 313.971 261.254L315.236 263.379L315.01 261.842C314.694 260.079 313.202 256.734 311.304 253.66C310.173 251.852 310.173 251.716 311.077 252.53C312.479 253.75 315.824 258.994 316.457 260.892C316.954 262.384 316.954 262.339 316.728 259.988C316.457 256.779 314.513 252.71 311.891 249.637C310.716 248.28 309.36 246.111 308.908 244.89L308.004 242.585L307.913 245.071L307.868 247.557L307.28 245.297C306.964 244.031 306.647 242.223 306.557 241.229C306.467 240.144 306.376 240.731 306.286 242.72C306.195 244.528 306.286 246.698 306.557 247.557ZM328.662 248.371C326.221 250.631 324.322 252.53 324.413 252.62C324.684 252.891 330.651 248.958 331.555 247.964C332.64 246.743 335.081 241.952 335.081 241.048C335.081 240.641 334.629 241.229 334.041 242.313C333.454 243.489 331.239 245.975 328.662 248.371ZM323.463 244.935C323.599 245.387 323.689 245.116 323.689 244.393C323.689 243.624 323.599 243.308 323.463 243.579C323.373 243.896 323.373 244.528 323.463 244.935ZM335.081 250.495C334.041 252.53 329.204 257.909 327.667 258.723C327.215 258.994 328.074 257.728 329.566 255.965C331.826 253.388 334.629 249.004 334.629 248.1C334.629 248.009 333.363 249.184 331.781 250.767C329.928 252.62 328.391 253.705 327.215 254.021C325.498 254.519 323.78 255.694 323.78 256.462C323.78 256.643 324.187 256.417 324.684 255.92C325.181 255.423 326.13 254.925 326.809 254.79C327.532 254.609 328.571 254.293 329.204 254.067C330.199 253.705 330.154 253.795 328.888 254.88C328.074 255.603 326.673 256.734 325.769 257.457C324.096 258.858 323.373 260.079 322.333 263.65L321.7 265.684L327.08 261.616C332.369 257.638 334.267 255.649 336.075 252.078C337.431 249.456 337.838 247.738 337.477 245.975L337.205 244.393L336.663 246.427C336.347 247.557 335.669 249.365 335.081 250.495ZM317.949 268.441C313.066 288.738 311.756 298.864 312.162 313.691C312.343 320.652 312.66 324.223 313.338 327.568C314.195 331.8 314.211 331.8 317.121 340.677C318.929 343.57 319.201 343.751 320.331 343.48C321.009 343.344 321.687 343.028 321.913 342.847C322.094 342.666 321.144 340.813 319.743 338.778C318.355 336.954 318.22 335.931 318.22 335.931C318.22 335.931 315.643 323.319 314.965 315.589C313.428 298.412 314.468 289.1 321.972 253.75C322.695 250.224 323.328 246.969 323.283 246.517C323.283 246.111 322.695 248.28 321.972 251.399C321.294 254.519 319.485 262.158 317.949 268.441ZM328.074 252.032C327.803 252.213 328.029 252.213 328.526 251.942C329.024 251.671 329.837 250.993 330.334 250.405C331.193 249.41 331.193 249.41 329.882 250.495C329.114 251.128 328.3 251.806 328.074 252.032ZM303.619 253.388C303.8 254.428 304.613 256.869 305.472 258.858C306.557 261.344 306.738 262.113 306.15 261.344C304.523 259.31 302.534 254.835 302.127 252.394C301.946 251.083 301.585 249.863 301.404 249.682C300.726 249.049 301.539 256.236 302.489 258.813C302.986 260.305 303.348 261.57 303.257 261.706C302.624 262.339 300.002 256.01 299.189 251.852C299.053 251.219 299.053 252.439 299.098 254.564C299.234 257.864 299.46 258.858 300.726 261.344C301.539 262.972 302.67 264.915 303.257 265.684C304.704 267.537 304.613 268.08 303.167 266.724C302.534 266.136 301.268 264.328 300.409 262.7C298.782 259.581 298.782 259.853 300.409 264.283C301.223 266.543 302.127 267.718 305.924 271.515C308.41 274.002 310.806 276.533 311.258 277.166L312.072 278.296L311.846 276.759C311.71 275.945 310.987 274.002 310.264 272.51C309.541 270.973 308.998 269.662 309.089 269.572C309.179 269.481 310.038 270.792 311.077 272.51L312.931 275.584V273.323C312.931 272.013 312.388 269.481 311.62 267.311C310.897 265.277 310.399 263.605 310.49 263.605C310.851 263.605 313.292 268.893 313.609 270.295C314.151 272.781 314.242 271.696 313.835 268.261C313.338 264.328 312.027 261.661 308.682 257.457C307.28 255.739 305.608 253.253 304.93 251.942C303.89 250.043 303.619 249.772 303.528 250.541C303.438 251.083 303.483 252.394 303.619 253.388ZM334.086 256.914C332.73 258.225 330.154 260.44 328.345 261.796C325.226 264.147 321.068 268.441 321.068 269.3C321.068 269.526 321.384 269.21 321.791 268.667C322.152 268.08 324.096 266.724 326.04 265.594C331.51 262.429 334.719 259.265 336.889 254.925C337.884 252.936 338.697 250.947 338.652 250.541C338.652 250.134 338.155 250.857 337.567 252.168C336.979 253.434 335.442 255.603 334.086 256.914ZM341.364 251.897C341.59 252.484 341.816 252.756 341.816 252.439C341.861 251.761 341.364 250.405 341.138 250.631C341.003 250.721 341.138 251.309 341.364 251.897ZM341.771 257.05C341.635 259.039 341.681 260.169 341.861 259.536C342.223 258.406 342.449 252.891 342.133 253.253C342.042 253.343 341.861 255.061 341.771 257.05ZM339.285 257.14C339.42 257.592 339.511 257.321 339.511 256.598C339.511 255.829 339.42 255.513 339.285 255.784C339.194 256.101 339.194 256.734 339.285 257.14ZM334.493 265.187C333.408 266.452 331.645 267.899 330.606 268.487C328.933 269.436 329.069 269.21 332.278 266C334.358 263.921 336.075 261.751 336.482 260.666L337.205 258.813L333.951 262.068C331.645 264.373 329.747 265.774 327.215 266.995C323.599 268.803 321.836 270.43 320.751 272.962C319.937 274.906 319.983 275.81 320.842 274.544C321.565 273.549 325.452 271.018 325.814 271.38C325.904 271.47 324.774 272.51 323.328 273.73C320.525 276.036 319.124 277.934 321.429 276.352C322.831 275.358 327.848 272.781 327.17 273.414C326.899 273.64 325.407 274.906 323.78 276.171C322.152 277.482 320.435 279.155 319.937 279.968L319.079 281.415L320.706 279.833C321.61 278.929 323.418 277.844 324.955 277.256C328.3 276.036 330.786 274.318 335.442 269.888C338.742 266.724 341.409 262.881 341.409 261.254C341.409 260.938 340.912 261.751 340.279 263.017C338.878 266.091 335.714 269.436 331.962 271.922C327.487 274.815 326.809 274.815 330.108 271.877C335.849 266.814 338.2 263.469 338.878 259.536C339.149 258.09 339.059 258.18 337.838 260.44C337.115 261.842 335.623 263.966 334.493 265.187ZM296.431 268.035C296.883 269.572 298.014 272.148 299.008 273.685C300.816 276.443 300.816 276.488 299.37 275.132C298.601 274.408 297.155 272.148 296.115 270.159C294.578 267.085 294.352 266.814 294.623 268.306C295.211 271.787 296.703 274.77 299.415 277.979C300.907 279.788 301.946 281.234 301.675 281.234C300.952 281.234 295.03 275.222 294.216 273.685C293.81 272.871 293.177 271.154 292.86 269.843C292.227 267.628 292.182 267.583 292.182 269.029C292.092 273.052 296.974 279.29 303.845 283.901C305.427 284.986 307.506 286.659 308.456 287.608C309.45 288.602 310.219 289.19 310.219 289.009C310.219 288.783 309.134 287.111 307.823 285.303C306.557 283.494 305.156 281.596 304.794 281.053C304.432 280.556 304.93 280.827 305.969 281.686C307.642 283.133 308.682 284.353 310.445 286.885C310.987 287.698 311.032 287.563 310.625 285.845C309.993 282.907 308.591 280.466 305.969 277.663C304.206 275.764 303.98 275.403 305.111 276.171C307.235 277.663 310.083 281.099 310.671 282.907C311.575 285.529 311.71 284.218 310.851 281.279C310.173 278.703 309.767 278.205 306.06 274.815C302.534 271.606 300.364 268.939 298.556 265.639C297.516 263.831 297.968 266.904 299.144 269.978C300.364 273.188 299.596 272.555 297.697 268.803C296.974 267.447 296.431 265.413 296.251 263.605L295.979 260.666L295.844 262.927C295.753 264.147 296.025 266.452 296.431 268.035ZM337.657 275.132C335.714 277.979 331.645 282.319 330.063 283.223C328.843 283.946 329.204 283.359 331.826 280.601C335.533 276.669 336.889 274.228 336.844 271.515C336.799 269.752 336.799 269.707 336.437 271.108C335.804 273.821 333.318 277.03 330.334 279.11C329.159 279.923 329.204 279.788 330.832 278.025C333.725 274.86 334.177 274.092 332.323 275.493C331.465 276.171 328.571 277.708 325.95 278.929C321.881 280.827 320.932 281.505 319.802 283.133C319.079 284.218 318.355 285.529 318.175 286.071C318.039 286.659 317.768 287.563 317.632 288.06C317.451 288.738 317.903 288.422 319.079 287.111C320.796 285.212 324.413 282.59 325.317 282.59C325.588 282.59 325.272 282.907 324.684 283.359C322.785 284.579 320.616 286.794 319.214 288.783C317.722 290.953 317.496 291.812 318.807 290.411C320.254 288.828 322.514 287.292 324.639 286.478C327.441 285.393 327.396 285.845 324.594 287.472C322.333 288.738 316.999 293.891 316.999 294.795C316.999 295.021 317.813 294.343 318.853 293.213C320.254 291.722 321.52 290.908 324.187 289.913C327.893 288.467 333.499 285.122 334.629 283.675C335.171 282.997 335.081 282.997 334.177 283.766C332.911 284.896 330.063 286.659 329.566 286.659C329.34 286.659 330.832 285.031 332.821 282.997C334.81 281.008 336.573 278.838 336.753 278.16C336.889 277.482 337.431 276.443 337.884 275.81C339.059 274.182 340.596 269.481 340.234 268.622C340.053 268.17 339.737 268.939 339.375 270.702C339.014 272.239 338.245 274.228 337.657 275.132ZM292.634 278.296C292.951 279.742 293.9 282.003 294.714 283.359C295.572 284.851 295.889 285.619 295.437 285.257C294.126 284.218 293.493 283.404 292.318 281.008L291.142 278.748L291.459 280.782C291.685 282.59 293.764 286.659 294.442 286.659C294.578 286.659 295.392 287.518 296.205 288.557L297.742 290.411L296.251 289.552C295.392 289.1 294.488 288.331 294.216 287.879C293.357 286.523 292.951 287.066 293.81 288.512C294.985 290.501 299.098 293.485 304.026 295.971C305.337 296.604 307.145 297.869 308.139 298.819C309.586 300.175 309.767 300.265 309.315 299.316C308.998 298.683 307.1 296.604 305.065 294.615C301.811 291.45 301.63 291.179 303.438 292.309C304.568 292.987 306.06 294.072 306.828 294.75C309.767 297.417 310.038 297.462 308.817 295.293C307.642 293.123 305.924 291.179 303.438 289.19C302.353 288.331 302.217 288.105 302.986 288.512C304.975 289.461 307.009 291.224 308.41 293.123C309.857 295.112 310.173 294.795 309.179 292.4C308.184 290.094 306.376 288.241 302.398 285.483C300.364 284.037 297.697 281.867 296.477 280.601L294.307 278.386L295.527 280.827C296.205 282.183 297.155 283.811 297.652 284.489C298.149 285.212 298.42 285.755 298.285 285.755C297.607 285.755 294.036 280.24 293.267 277.934C292.182 274.725 291.866 274.906 292.634 278.296ZM335.488 287.879C333.725 290.094 329.43 293.891 328.571 293.891C328.436 293.891 329.928 292.264 331.917 290.32C333.906 288.331 335.533 286.523 335.533 286.297C335.533 286.071 333.86 286.93 331.871 288.286C329.837 289.597 327.17 291.043 325.859 291.45C321.203 292.987 318.943 294.615 317.406 297.598C316.231 299.904 316.276 301.395 317.451 299.451C318.265 298.05 321.655 295.247 322.469 295.247C322.695 295.247 321.565 296.604 319.937 298.276C316.954 301.35 315.779 303.339 318.446 300.808C320.028 299.361 321.113 298.683 323.192 297.96L324.458 297.508L323.102 298.547C322.379 299.09 320.751 300.536 319.485 301.712L317.225 303.927L319.259 302.797C320.39 302.164 322.74 301.26 324.503 300.717C329.069 299.406 333.996 295.971 335.397 293.213C335.985 291.993 335.849 292.083 333.906 293.982C331.691 296.106 327.035 298.864 325.678 298.864C325.272 298.864 326.266 298.005 327.893 296.965C334.086 292.942 338.29 287.156 338.2 282.771L338.155 280.556L337.793 282.952C337.522 284.76 336.979 285.935 335.488 287.879ZM289.334 285.709C290.51 287.156 290.781 287.924 290.781 289.687C290.781 290.863 291.007 292.626 291.233 293.53C291.956 296.016 295.437 300.446 298.511 302.706C301.63 304.966 301.404 305.283 297.833 303.61C294.578 302.073 292.408 300.084 290.329 296.604C289.334 294.976 288.521 293.846 288.521 294.072C288.521 295.021 292.227 300.582 294.036 302.345C296.16 304.379 300.635 307.227 304.116 308.764C305.382 309.306 307.19 310.391 308.139 311.159L309.947 312.606L308.41 310.346C307.597 309.125 306.105 307.227 305.065 306.142C302.624 303.565 304.478 304.469 307.687 307.407C309.857 309.442 309.902 309.442 309.043 307.95C308.591 307.136 307.461 305.87 306.602 305.147C304.523 303.384 305.246 303.475 307.868 305.283L309.993 306.729L308.41 304.74C307.552 303.61 306.647 302.571 306.376 302.39C306.06 302.164 306.105 302.028 306.421 302.028C306.693 302.028 307.506 302.48 308.184 303.023L309.405 303.972L308.727 302.661C307.597 300.536 305.246 298.593 301.856 297.01C300.093 296.197 297.607 294.524 296.251 293.258C294.894 291.993 293.945 291.269 294.171 291.631C294.849 292.897 297.335 295.88 298.692 297.191C299.55 298.005 299.731 298.321 299.144 298.005C297.923 297.417 295.166 294.479 293.99 292.535C292.679 290.32 292.815 291.631 294.171 294.343C294.759 295.519 296.612 297.869 298.24 299.497C300.952 302.209 301.042 302.39 299.731 301.938C297.742 301.26 293.584 296.92 292.499 294.434C292.001 293.349 291.504 291.315 291.369 289.913C291.142 288.105 290.69 286.84 289.741 285.438C288.973 284.398 288.249 283.585 288.159 283.72C288.023 283.856 288.566 284.76 289.334 285.709ZM287.752 288.105C287.888 288.467 288.023 288.331 288.023 287.834C288.069 287.337 287.933 287.066 287.797 287.246C287.662 287.382 287.617 287.789 287.752 288.105ZM287.752 291.495C287.888 291.948 287.978 291.676 287.978 290.953C287.978 290.185 287.888 289.868 287.752 290.139C287.662 290.456 287.662 291.089 287.752 291.495ZM332.64 301.305C329.521 304.333 327.577 305.644 326.266 305.644C325.633 305.599 325.904 305.328 327.17 304.695C328.843 303.836 333.906 298.909 333.499 298.502C333.408 298.367 332.323 299.045 331.103 299.949C329.792 300.853 327.125 302.118 324.774 302.887C318.672 304.921 316.502 306.594 316.547 309.396C316.592 310.346 316.592 310.391 317.09 309.487C317.768 308.176 319.35 306.549 320.344 306.006C320.887 305.69 320.661 306.232 319.621 307.498C316.954 310.798 316.095 313.013 318.22 310.979C318.943 310.346 320.164 309.487 321.022 309.035C322.379 308.357 322.198 308.583 319.892 310.843C318.175 312.515 317.813 312.967 318.853 312.244C319.757 311.566 321.746 310.617 323.283 310.12C324.774 309.577 326.04 309.035 326.04 308.854C326.04 308.673 326.718 308.176 327.487 307.724C331.419 305.464 335.262 301.26 336.663 297.688L337.386 295.926L336.392 297.282C335.849 298.005 334.132 299.858 332.64 301.305ZM289.108 303.927C289.199 304.514 289.289 304.153 289.289 303.158C289.334 302.164 289.244 301.712 289.108 302.118C289.018 302.571 289.018 303.384 289.108 303.927ZM292.318 304.153C293.131 305.69 296.657 309.17 299.144 310.843C300.861 312.018 300.907 312.063 299.596 311.792C297.833 311.385 295.12 309.487 293.403 307.498L292.047 305.87L292.815 307.407C294.397 310.526 297.968 313.736 302.308 315.861C304.523 316.945 306.286 317.85 306.15 317.85C305.924 317.85 300.183 316.087 298.24 315.408C296.341 314.73 300.229 316.719 303.574 318.121C305.517 318.934 307.823 320.155 308.727 320.833L310.309 322.008L309.541 320.517C309.089 319.658 307.823 318.121 306.647 317.036C305.382 315.906 304.885 315.137 305.291 315.137C306.241 315.137 309.767 317.714 309.767 318.392C309.767 318.663 309.857 318.799 309.993 318.708C310.083 318.573 309.993 317.759 309.767 316.855C309.134 314.685 306.015 311.883 302.398 310.255C299.053 308.718 294.668 305.87 293.086 304.107C291.685 302.616 291.504 302.616 292.318 304.153ZM329.114 307.905C324.594 310.165 321.429 312.244 319.305 314.414L317.361 316.403L322.74 313.736C328.345 310.978 333.092 307.317 334.448 304.65L335.171 303.294L333.544 304.876C332.685 305.78 330.651 307.136 329.114 307.905ZM290.736 308.266C292.001 310.752 294.714 313.872 296.567 314.866C296.974 315.092 296.205 314.278 294.849 313.013C293.267 311.566 291.866 309.758 291.052 307.95C290.329 306.458 289.651 305.283 289.56 305.373C289.425 305.464 289.967 306.775 290.736 308.266ZM332.549 315.092C330.334 317.578 327.306 319.025 325.272 318.618C323.689 318.302 320.796 319.884 319.35 321.873C318.039 323.636 318.084 324.133 319.395 322.867C320.344 322.053 327.351 318.754 328.21 318.754C328.391 318.754 327.215 319.612 325.588 320.697C323.961 321.737 322.017 323.093 321.203 323.681C319.395 325.037 318.762 326.348 320.525 325.127C321.203 324.675 323.463 323.138 325.588 321.782C331.419 317.985 335.669 313.103 335.488 310.3C335.442 309.848 335.216 310.255 334.99 311.205C334.719 312.109 333.634 313.872 332.549 315.092ZM323.418 315.635C319.576 317.036 317.451 318.934 317.451 320.878V322.053L318.355 320.878C318.853 320.245 321.474 318.618 324.187 317.217C327.487 315.499 329.476 314.233 330.289 313.148C332.007 310.888 331.736 310.798 329.204 312.651C327.939 313.6 325.317 314.911 323.418 315.635ZM326.763 316.81C324.639 318.256 324.865 318.437 327.622 317.397C329.069 316.855 332.278 313.646 332.64 312.425C332.911 311.431 332.685 311.566 331.012 313.239C329.928 314.324 328.029 315.906 326.763 316.81ZM295.753 317.85C297.155 319.838 301.042 321.873 306.828 323.726C307.823 324.042 308.998 324.585 309.405 324.992C309.857 325.353 310.219 325.444 310.219 325.218C310.219 324.133 306.919 321.963 302.941 320.426C300.59 319.522 297.878 318.256 296.883 317.623C294.578 316.222 294.578 316.222 295.753 317.85ZM293.674 317.804C294.714 319.748 298.827 323.274 299.686 322.958C300.183 322.777 300.319 322.867 300.093 323.184C299.912 323.545 300.002 323.636 300.409 323.455C300.771 323.319 301.223 323.455 301.449 323.771C301.63 324.133 301.585 324.223 301.268 323.997C300.952 323.816 300.726 323.771 300.726 323.862C300.726 323.997 301.494 324.449 302.398 324.901C303.619 325.489 304.839 325.715 306.557 325.625L308.998 325.489L307.687 324.811C306.828 324.314 305.743 324.178 304.432 324.359C303.348 324.495 302.534 324.449 302.534 324.178C302.534 323.907 302.896 323.726 303.302 323.681C303.754 323.681 303.031 323.274 301.675 322.777C300.319 322.325 299.144 322.008 299.008 322.144C298.601 322.551 296.205 320.471 294.804 318.528C293.131 316.177 292.725 315.951 293.674 317.804ZM326.266 322.37C326.13 322.641 326.311 322.686 326.673 322.551C327.487 322.234 327.622 321.918 326.989 321.918C326.718 321.918 326.402 322.099 326.266 322.37ZM322.559 324.314C321.746 324.856 320.977 325.625 320.842 325.986C320.661 326.393 320.977 326.257 321.61 325.67C322.198 325.173 323.328 324.404 324.096 323.997C324.91 323.59 325.588 323.138 325.588 323.003C325.588 322.596 324.187 323.184 322.559 324.314Z" fill="#022C1C"/>
<path d="M336.437 278.251C336.437 278.341 336.075 278.703 335.623 279.019C334.945 279.607 334.9 279.562 335.487 278.838C336.075 278.115 336.437 277.889 336.437 278.251Z" fill="#022C1C"/>
<path d="M387.341 312.702C388.209 313.57 389.331 314.33 390.706 314.981C392.081 315.56 394.144 315.85 396.894 315.85C399.21 315.85 401.381 315.56 403.407 314.981C405.433 314.33 407.17 313.426 408.618 312.268C410.137 311.037 411.332 309.59 412.2 307.925C413.068 306.189 413.503 304.235 413.503 302.063C413.503 299.169 412.598 296.744 410.789 294.79C409.052 292.836 406.845 291.099 404.167 289.58C401.562 288.06 398.703 286.576 395.591 285.129C392.479 283.681 389.584 281.981 386.907 280.027C384.301 278 382.094 275.612 380.285 272.862C378.548 270.04 377.679 266.53 377.679 262.332C377.679 259.293 378.222 256.579 379.308 254.191C380.393 251.802 381.913 249.776 383.867 248.112C385.893 246.447 388.282 245.181 391.032 244.312C393.782 243.371 396.858 242.901 400.259 242.901C404.674 242.901 408.69 243.263 412.309 243.986C415.999 244.638 418.894 245.47 420.993 246.483C420.993 247.714 420.884 249.161 420.667 250.825C420.523 252.418 420.305 254.082 420.016 255.819C419.799 257.556 419.546 259.257 419.256 260.921C418.967 262.513 418.677 263.924 418.388 265.155H415.565L411.223 250.283C409.92 249.704 408.256 249.269 406.229 248.98C404.275 248.691 402.177 248.546 399.933 248.546C396.242 248.546 393.275 249.595 391.032 251.694C388.788 253.72 387.667 256.579 387.667 260.27C387.667 263.237 388.535 265.734 390.272 267.76C392.081 269.786 394.325 271.596 397.002 273.188C399.68 274.78 402.539 276.336 405.578 277.856C408.69 279.303 411.585 281.004 414.263 282.958C416.94 284.912 419.148 287.228 420.884 289.905C422.694 292.583 423.598 295.912 423.598 299.892C423.598 303.149 422.983 306.116 421.753 308.794C420.595 311.472 418.894 313.751 416.651 315.633C414.407 317.514 411.657 318.962 408.401 319.975C405.144 320.988 401.453 321.495 397.328 321.495C392.769 321.495 388.68 320.952 385.061 319.866C381.443 318.781 378.874 317.623 377.354 316.393C377.426 315.162 377.535 313.679 377.679 311.942C377.897 310.205 378.114 308.432 378.331 306.623C378.62 304.741 378.91 302.932 379.199 301.195C379.489 299.458 379.778 297.975 380.068 296.744H382.89L387.341 312.702ZM470.508 305.971C470.508 307.564 470.545 308.939 470.617 310.097C470.689 311.254 470.762 312.485 470.834 313.787L478.324 314.873V317.153C476.515 318.093 474.489 318.926 472.245 319.649C470.074 320.373 467.976 320.916 465.949 321.278H463.235C462.512 319.613 462.077 317.804 461.933 315.85C461.788 313.824 461.679 311.616 461.607 309.228H461.064C460.775 310.675 460.196 312.159 459.327 313.679C458.531 315.126 457.446 316.429 456.071 317.587C454.768 318.745 453.212 319.686 451.403 320.409C449.594 321.133 447.531 321.495 445.215 321.495C440.801 321.495 437.182 320.156 434.36 317.478C431.61 314.801 430.235 311.291 430.235 306.948C430.235 303.619 430.886 300.906 432.189 298.807C433.564 296.636 435.554 294.935 438.159 293.705C440.764 292.474 443.985 291.606 447.82 291.099C451.656 290.52 456.107 290.086 461.173 289.797C461.462 286.685 461.535 283.899 461.39 281.438C461.317 278.905 460.919 276.77 460.196 275.033C459.544 273.224 458.531 271.849 457.156 270.908C455.854 269.895 454.117 269.388 451.946 269.388C450.932 269.388 449.774 269.461 448.472 269.605C447.242 269.678 446.011 269.967 444.781 270.474L439.679 283.501H436.856C436.133 281.329 435.481 279.086 434.902 276.77C434.396 274.454 434.07 272.175 433.925 269.931C436.675 268.267 439.715 266.964 443.044 266.023C446.445 265.082 450.209 264.612 454.334 264.612C458.025 264.612 460.956 265.155 463.127 266.24C465.37 267.253 467.071 268.592 468.229 270.257C469.387 271.921 470.147 273.767 470.508 275.793C470.87 277.819 471.051 279.846 471.051 281.872C471.051 286.214 470.943 290.412 470.726 294.465C470.581 298.445 470.508 302.281 470.508 305.971ZM449.557 314.764C451.367 314.764 452.959 314.403 454.334 313.679C455.709 312.955 456.867 312.087 457.808 311.074C458.748 310.06 459.508 309.047 460.087 308.034C460.666 306.948 461.064 306.044 461.281 305.32V293.922C457.084 293.922 453.646 294.139 450.969 294.573C448.291 295.007 446.192 295.695 444.672 296.636C443.153 297.576 442.103 298.771 441.524 300.218C440.945 301.593 440.656 303.185 440.656 304.994C440.656 308.106 441.452 310.531 443.044 312.268C444.636 313.932 446.807 314.764 449.557 314.764ZM504.365 264.612C508.273 264.612 511.566 265.01 514.243 265.806C516.921 266.53 519.165 267.688 520.974 269.28C525.244 266.385 529.694 264.286 534.326 262.984C534.905 263.78 535.303 264.757 535.52 265.915C535.81 267.073 535.954 268.158 535.954 269.171L534.543 271.777H523.145C524.954 274.382 525.859 277.819 525.859 282.089C525.859 287.3 524.013 291.534 520.323 294.79C516.704 298.047 511.385 299.675 504.365 299.675C502.99 299.675 501.868 299.639 501 299.567C500.131 299.494 499.154 299.386 498.069 299.241C497.707 299.892 497.273 300.616 496.766 301.412C496.332 302.208 496.115 303.04 496.115 303.909C496.115 305.356 496.947 306.514 498.612 307.383C500.276 308.179 502.339 308.902 504.799 309.554C507.332 310.205 510.046 310.893 512.941 311.616C515.908 312.268 518.658 313.208 521.191 314.439C523.724 315.597 525.823 317.153 527.487 319.107C529.224 320.988 530.129 323.449 530.201 326.488C530.273 329.094 529.658 331.446 528.356 333.544C527.125 335.643 525.388 337.38 523.145 338.755C520.901 340.202 518.188 341.288 515.003 342.012C511.891 342.808 508.454 343.206 504.691 343.206C496.802 343.206 490.832 341.867 486.779 339.189C482.799 336.512 480.808 333.146 480.808 329.094C480.808 327.14 481.098 325.439 481.677 323.992C482.328 322.544 483.233 321.278 484.391 320.192C485.549 319.107 486.996 318.166 488.733 317.37C490.47 316.501 492.46 315.705 494.704 314.981C493.111 314.258 491.773 313.281 490.687 312.051C489.674 310.748 489.167 309.192 489.167 307.383C489.167 305.718 489.855 304.09 491.23 302.498C492.677 300.833 494.125 299.53 495.572 298.59C491.447 297.504 488.263 295.442 486.019 292.402C483.848 289.363 482.762 285.925 482.762 282.089C482.762 279.629 483.233 277.349 484.174 275.25C485.114 273.079 486.49 271.198 488.299 269.605C490.108 268.013 492.352 266.783 495.029 265.915C497.707 265.046 500.819 264.612 504.365 264.612ZM520.431 328.985C520.431 326.669 519.635 324.824 518.043 323.449C516.523 322.074 514.605 320.952 512.289 320.084C509.974 319.215 507.477 318.491 504.799 317.912C502.121 317.334 499.625 316.682 497.309 315.958C494.559 317.623 492.75 319.36 491.881 321.169C491.013 323.051 490.578 324.969 490.578 326.923C490.578 330.758 491.953 333.617 494.704 335.498C497.454 337.452 501.434 338.429 506.645 338.429C509.322 338.429 511.53 338.176 513.266 337.67C515.076 337.163 516.487 336.475 517.5 335.607C518.586 334.811 519.346 333.834 519.78 332.676C520.214 331.518 520.431 330.288 520.431 328.985ZM492.532 282.089C492.532 283.826 492.713 285.491 493.075 287.083C493.509 288.603 494.161 289.941 495.029 291.099C495.97 292.257 497.2 293.198 498.72 293.922C500.24 294.573 502.121 294.899 504.365 294.899C508.562 294.899 511.566 293.669 513.375 291.208C515.184 288.747 516.089 285.708 516.089 282.089C516.089 278.181 515.184 275.106 513.375 272.862C511.638 270.546 508.635 269.388 504.365 269.388C499.95 269.388 496.875 270.51 495.138 272.754C493.401 274.925 492.532 278.037 492.532 282.089ZM579.851 312.593C579.272 313.824 578.367 314.981 577.137 316.067C575.906 317.153 574.495 318.093 572.903 318.889C571.311 319.686 569.574 320.301 567.692 320.735C565.811 321.242 563.893 321.495 561.939 321.495C557.669 321.495 553.906 320.843 550.649 319.541C547.393 318.166 544.679 316.248 542.508 313.787C540.337 311.254 538.672 308.251 537.514 304.777C536.429 301.304 535.886 297.396 535.886 293.053C535.886 283.79 538.021 276.734 542.291 271.885C546.56 267.036 552.603 264.612 560.419 264.612C562.952 264.612 565.449 264.974 567.91 265.697C570.37 266.349 572.541 267.471 574.423 269.063C576.377 270.655 577.933 272.79 579.091 275.467C580.321 278.073 580.936 281.329 580.936 285.237C580.936 286.468 580.864 287.734 580.719 289.037C580.647 290.267 580.466 291.606 580.176 293.053H546.307C546.307 296.093 546.669 298.952 547.393 301.629C548.189 304.235 549.347 306.514 550.866 308.468C552.386 310.422 554.304 311.978 556.62 313.136C558.936 314.222 561.649 314.764 564.761 314.764C567.294 314.764 569.863 314.403 572.469 313.679C575.074 312.955 577.028 312.014 578.331 310.856L579.851 312.593ZM559.985 269.388C555.86 269.388 552.712 270.8 550.541 273.622C548.37 276.372 547.067 281.257 546.633 288.277H570.515C570.587 287.626 570.623 287.01 570.623 286.432C570.696 285.78 570.732 285.165 570.732 284.586C570.732 279.954 569.863 276.264 568.127 273.513C566.39 270.763 563.676 269.388 559.985 269.388ZM636.526 320.192H609.062V317.044C611.957 315.886 614.924 315.018 617.964 314.439V250.066C614.562 249.559 611.595 248.654 609.062 247.352V244.204H636.526V247.352C635.296 248.003 633.994 248.546 632.619 248.98C631.243 249.414 629.832 249.776 628.385 250.066V278.398H662.471V250.066C660.951 249.704 659.504 249.306 658.129 248.871C656.826 248.437 655.56 247.931 654.33 247.352V244.204H681.794V247.352C680.491 248.075 679.044 248.654 677.452 249.089C675.932 249.45 674.412 249.776 672.892 250.066V314.439C674.557 314.728 676.149 315.09 677.669 315.524C679.189 315.958 680.564 316.465 681.794 317.044V320.192H654.33V317.044C656.935 315.886 659.649 315.018 662.471 314.439V284.043H628.385V314.439C629.832 314.728 631.243 315.09 632.619 315.524C633.994 315.958 635.296 316.465 636.526 317.044V320.192ZM730.051 312.593C729.472 313.824 728.567 314.981 727.337 316.067C726.107 317.153 724.696 318.093 723.103 318.889C721.511 319.686 719.774 320.301 717.893 320.735C716.011 321.242 714.093 321.495 712.139 321.495C707.869 321.495 704.106 320.843 700.85 319.541C697.593 318.166 694.879 316.248 692.708 313.787C690.537 311.254 688.872 308.251 687.714 304.777C686.629 301.304 686.086 297.396 686.086 293.053C686.086 283.79 688.221 276.734 692.491 271.885C696.761 267.036 702.804 264.612 710.62 264.612C713.153 264.612 715.649 264.974 718.11 265.697C720.57 266.349 722.742 267.471 724.623 269.063C726.577 270.655 728.133 272.79 729.291 275.467C730.521 278.073 731.136 281.329 731.136 285.237C731.136 286.468 731.064 287.734 730.919 289.037C730.847 290.267 730.666 291.606 730.377 293.053H696.507C696.507 296.093 696.869 298.952 697.593 301.629C698.389 304.235 699.547 306.514 701.067 308.468C702.586 310.422 704.504 311.978 706.82 313.136C709.136 314.222 711.85 314.764 714.962 314.764C717.495 314.764 720.064 314.403 722.669 313.679C725.274 312.955 727.228 312.014 728.531 310.856L730.051 312.593ZM710.185 269.388C706.06 269.388 702.912 270.8 700.741 273.622C698.57 276.372 697.267 281.257 696.833 288.277H720.715C720.788 287.626 720.824 287.01 720.824 286.432C720.896 285.78 720.932 285.165 720.932 284.586C720.932 279.954 720.064 276.264 718.327 273.513C716.59 270.763 713.876 269.388 710.185 269.388ZM777.482 305.971C777.482 307.564 777.518 308.939 777.59 310.097C777.663 311.254 777.735 312.485 777.807 313.787L785.298 314.873V317.153C783.489 318.093 781.462 318.926 779.219 319.649C777.048 320.373 774.949 320.916 772.923 321.278H770.209C769.485 319.613 769.051 317.804 768.906 315.85C768.761 313.824 768.653 311.616 768.58 309.228H768.038C767.748 310.675 767.169 312.159 766.301 313.679C765.505 315.126 764.419 316.429 763.044 317.587C761.741 318.745 760.185 319.686 758.376 320.409C756.567 321.133 754.504 321.495 752.188 321.495C747.774 321.495 744.155 320.156 741.333 317.478C738.583 314.801 737.208 311.291 737.208 306.948C737.208 303.619 737.859 300.906 739.162 298.807C740.537 296.636 742.527 294.935 745.132 293.705C747.738 292.474 750.958 291.606 754.794 291.099C758.629 290.52 763.08 290.086 768.146 289.797C768.436 286.685 768.508 283.899 768.363 281.438C768.291 278.905 767.893 276.77 767.169 275.033C766.518 273.224 765.505 271.849 764.13 270.908C762.827 269.895 761.09 269.388 758.919 269.388C757.906 269.388 756.748 269.461 755.445 269.605C754.215 269.678 752.985 269.967 751.754 270.474L746.652 283.501H743.83C743.106 281.329 742.455 279.086 741.876 276.77C741.369 274.454 741.044 272.175 740.899 269.931C743.649 268.267 746.688 266.964 750.017 266.023C753.419 265.082 757.182 264.612 761.307 264.612C764.998 264.612 767.929 265.155 770.1 266.24C772.344 267.253 774.044 268.592 775.202 270.257C776.36 271.921 777.12 273.767 777.482 275.793C777.844 277.819 778.025 279.846 778.025 281.872C778.025 286.214 777.916 290.412 777.699 294.465C777.554 298.445 777.482 302.281 777.482 305.971ZM756.531 314.764C758.34 314.764 759.932 314.403 761.307 313.679C762.682 312.955 763.84 312.087 764.781 311.074C765.722 310.06 766.482 309.047 767.061 308.034C767.639 306.948 768.038 306.044 768.255 305.32V293.922C764.057 293.922 760.62 294.139 757.942 294.573C755.264 295.007 753.165 295.695 751.646 296.636C750.126 297.576 749.077 298.771 748.498 300.218C747.919 301.593 747.629 303.185 747.629 304.994C747.629 308.106 748.425 310.531 750.017 312.268C751.61 313.932 753.781 314.764 756.531 314.764ZM813.075 320.192H788.976V317.478C791.364 316.32 793.752 315.452 796.141 314.873V246.158L787.89 245.289V242.467C789.772 241.598 792.124 240.838 794.946 240.187C797.769 239.536 800.519 238.993 803.197 238.559H805.911V314.873C808.299 315.452 810.687 316.32 813.075 317.478V320.192ZM815.548 268.52C818.298 266.783 821.193 265.553 824.233 264.829V255.602C825.173 254.878 826.259 254.191 827.489 253.539C828.792 252.816 830.058 252.2 831.289 251.694H834.003V265.915H850.286V271.342H834.003V302.823C834.003 307.166 834.69 310.241 836.065 312.051C837.44 313.86 839.503 314.764 842.253 314.764C843.555 314.764 845.184 314.692 847.138 314.547C849.092 314.33 850.756 313.968 852.131 313.462L852.891 315.09C852.312 315.741 851.48 316.429 850.394 317.153C849.381 317.876 848.187 318.564 846.812 319.215C845.509 319.866 844.062 320.409 842.47 320.843C840.878 321.278 839.249 321.495 837.585 321.495C833.243 321.495 829.914 320.265 827.598 317.804C825.354 315.343 824.233 311.363 824.233 305.863V271.342H815.548V268.52ZM912.824 320.192H889.376V317.478C891.113 316.537 893.284 315.669 895.889 314.873V289.471C895.889 283.826 895.093 279.412 893.501 276.227C891.909 272.971 889.014 271.342 884.817 271.342C882.935 271.342 881.234 271.704 879.714 272.428C878.195 273.079 876.82 273.948 875.589 275.033C874.359 276.119 873.31 277.385 872.441 278.833C871.573 280.208 870.921 281.655 870.487 283.175V314.873C871.645 315.162 872.731 315.488 873.744 315.85C874.829 316.212 875.879 316.755 876.892 317.478V320.192H853.553V317.478C855.796 316.32 858.184 315.452 860.717 314.873V246.158L852.467 245.289V242.467C854.566 241.598 856.99 240.838 859.74 240.187C862.563 239.536 865.24 238.993 867.773 238.559H870.487V276.879H870.596C872.116 273.477 874.287 270.582 877.109 268.194C880.004 265.806 883.478 264.612 887.53 264.612C890.425 264.612 892.994 264.974 895.238 265.697C897.554 266.349 899.471 267.543 900.991 269.28C902.511 271.017 903.669 273.369 904.465 276.336C905.261 279.231 905.659 282.922 905.659 287.409V314.873C906.889 315.162 908.12 315.488 909.35 315.85C910.58 316.212 911.738 316.755 912.824 317.478V320.192Z" fill="#022C1C"/>
<path d="M170.22 402.884V374.484H172.94V402.884H170.22ZM179.566 402.884V381.684H181.966L182.086 387.244L181.766 387.004C181.979 385.698 182.419 384.618 183.086 383.764C183.779 382.911 184.619 382.271 185.606 381.844C186.593 381.418 187.659 381.204 188.806 381.204C190.433 381.204 191.766 381.564 192.806 382.284C193.873 383.004 194.659 383.978 195.166 385.204C195.673 386.404 195.926 387.751 195.926 389.244V402.884H193.286V390.204C193.286 388.818 193.113 387.631 192.766 386.644C192.446 385.658 191.913 384.898 191.166 384.364C190.419 383.831 189.446 383.564 188.246 383.564C186.433 383.564 184.966 384.151 183.846 385.324C182.753 386.498 182.206 388.124 182.206 390.204V402.884H179.566ZM207.377 402.884C205.644 402.884 204.364 402.484 203.537 401.684C202.71 400.858 202.297 399.604 202.297 397.924V376.724H204.937V397.844C204.937 398.831 205.15 399.524 205.577 399.924C206.03 400.324 206.71 400.524 207.617 400.524H210.417V402.884H207.377ZM198.977 384.044V381.684H210.417V384.044H198.977ZM221.906 403.364C219.88 403.364 218.16 402.898 216.746 401.964C215.333 401.004 214.24 399.698 213.466 398.044C212.72 396.364 212.346 394.444 212.346 392.284C212.346 390.124 212.72 388.218 213.466 386.564C214.213 384.884 215.28 383.578 216.666 382.644C218.08 381.684 219.773 381.204 221.746 381.204C223.64 381.204 225.28 381.658 226.666 382.564C228.053 383.471 229.106 384.751 229.826 386.404C230.573 388.058 230.946 389.991 230.946 392.204V393.044H215.106C215.213 395.551 215.866 397.484 217.066 398.844C218.266 400.178 219.88 400.844 221.906 400.844C223.453 400.844 224.72 400.471 225.706 399.724C226.693 398.978 227.373 397.991 227.746 396.764L230.586 396.964C230.053 398.831 229.026 400.364 227.506 401.564C225.986 402.764 224.12 403.364 221.906 403.364ZM215.106 390.684H228.066C227.933 388.418 227.306 386.698 226.186 385.524C225.066 384.324 223.586 383.724 221.746 383.724C219.906 383.724 218.4 384.324 217.226 385.524C216.053 386.724 215.346 388.444 215.106 390.684ZM239.015 402.884C237.815 402.884 236.868 402.591 236.175 402.004C235.481 401.391 235.135 400.444 235.135 399.164V374.484H237.775V398.964C237.775 399.471 237.908 399.858 238.175 400.124C238.441 400.391 238.841 400.524 239.375 400.524H241.055V402.884H239.015ZM248.176 402.884C246.976 402.884 246.029 402.591 245.336 402.004C244.642 401.391 244.296 400.444 244.296 399.164V374.484H246.936V398.964C246.936 399.471 247.069 399.858 247.336 400.124C247.602 400.391 248.002 400.524 248.536 400.524H250.216V402.884H248.176ZM253.457 402.884V381.684H256.097V402.884H253.457ZM253.377 378.164V374.604H256.177V378.164H253.377ZM269.247 409.364C267.753 409.364 266.393 409.098 265.167 408.564C263.967 408.058 262.98 407.338 262.207 406.404C261.433 405.471 260.94 404.391 260.727 403.164L263.487 403.004C263.727 404.151 264.313 405.071 265.247 405.764C266.18 406.484 267.513 406.844 269.247 406.844C271.3 406.844 272.873 406.364 273.967 405.404C275.087 404.444 275.647 403.044 275.647 401.204V397.564C275.113 398.844 274.26 399.871 273.087 400.644C271.913 401.418 270.567 401.804 269.047 401.804C267.26 401.804 265.673 401.378 264.287 400.524C262.927 399.644 261.86 398.431 261.087 396.884C260.34 395.338 259.967 393.538 259.967 391.484C259.967 389.431 260.34 387.644 261.087 386.124C261.86 384.578 262.913 383.378 264.247 382.524C265.607 381.644 267.167 381.204 268.927 381.204C270.553 381.204 271.967 381.618 273.167 382.444C274.393 383.244 275.26 384.311 275.767 385.644V381.684H278.287V401.204C278.287 402.884 277.927 404.338 277.207 405.564C276.487 406.791 275.447 407.724 274.087 408.364C272.753 409.031 271.14 409.364 269.247 409.364ZM269.167 399.284C271.113 399.284 272.673 398.591 273.847 397.204C275.047 395.791 275.647 393.884 275.647 391.484C275.673 389.938 275.42 388.591 274.887 387.444C274.353 386.271 273.593 385.364 272.607 384.724C271.62 384.058 270.473 383.724 269.167 383.724C267.167 383.724 265.593 384.431 264.447 385.844C263.3 387.231 262.727 389.111 262.727 391.484C262.727 393.884 263.3 395.791 264.447 397.204C265.62 398.591 267.193 399.284 269.167 399.284ZM291.773 403.364C289.747 403.364 288.027 402.898 286.613 401.964C285.2 401.004 284.107 399.698 283.333 398.044C282.587 396.364 282.213 394.444 282.213 392.284C282.213 390.124 282.587 388.218 283.333 386.564C284.08 384.884 285.147 383.578 286.533 382.644C287.947 381.684 289.64 381.204 291.613 381.204C293.507 381.204 295.147 381.658 296.533 382.564C297.92 383.471 298.973 384.751 299.693 386.404C300.44 388.058 300.813 389.991 300.813 392.204V393.044H284.973C285.08 395.551 285.733 397.484 286.933 398.844C288.133 400.178 289.747 400.844 291.773 400.844C293.32 400.844 294.587 400.471 295.573 399.724C296.56 398.978 297.24 397.991 297.613 396.764L300.453 396.964C299.92 398.831 298.893 400.364 297.373 401.564C295.853 402.764 293.987 403.364 291.773 403.364ZM284.973 390.684H297.933C297.8 388.418 297.173 386.698 296.053 385.524C294.933 384.324 293.453 383.724 291.613 383.724C289.773 383.724 288.267 384.324 287.093 385.524C285.92 386.724 285.213 388.444 284.973 390.684ZM304.728 402.884V381.684H307.128L307.248 387.244L306.928 387.004C307.142 385.698 307.582 384.618 308.248 383.764C308.942 382.911 309.782 382.271 310.768 381.844C311.755 381.418 312.822 381.204 313.968 381.204C315.595 381.204 316.928 381.564 317.968 382.284C319.035 383.004 319.822 383.978 320.328 385.204C320.835 386.404 321.088 387.751 321.088 389.244V402.884H318.448V390.204C318.448 388.818 318.275 387.631 317.928 386.644C317.608 385.658 317.075 384.898 316.328 384.364C315.582 383.831 314.608 383.564 313.408 383.564C311.595 383.564 310.128 384.151 309.008 385.324C307.915 386.498 307.368 388.124 307.368 390.204V402.884H304.728ZM332.539 402.884C330.806 402.884 329.526 402.484 328.699 401.684C327.873 400.858 327.459 399.604 327.459 397.924V376.724H330.099V397.844C330.099 398.831 330.313 399.524 330.739 399.924C331.193 400.324 331.873 400.524 332.779 400.524H335.579V402.884H332.539ZM324.139 384.044V381.684H335.579V384.044H324.139ZM356.736 403.364C354.816 403.364 353.136 402.911 351.696 402.004C350.282 401.098 349.189 399.818 348.416 398.164C347.642 396.484 347.256 394.524 347.256 392.284C347.256 390.018 347.642 388.058 348.416 386.404C349.189 384.751 350.282 383.471 351.696 382.564C353.136 381.658 354.816 381.204 356.736 381.204C358.656 381.204 360.322 381.658 361.736 382.564C363.149 383.471 364.242 384.751 365.016 386.404C365.789 388.058 366.176 390.018 366.176 392.284C366.176 394.524 365.789 396.484 365.016 398.164C364.242 399.818 363.149 401.098 361.736 402.004C360.322 402.911 358.656 403.364 356.736 403.364ZM356.736 400.844C358.816 400.844 360.442 400.084 361.616 398.564C362.816 397.018 363.416 394.924 363.416 392.284C363.416 389.644 362.816 387.564 361.616 386.044C360.442 384.498 358.816 383.724 356.736 383.724C354.656 383.724 353.016 384.498 351.816 386.044C350.616 387.564 350.016 389.644 350.016 392.284C350.016 394.924 350.616 397.018 351.816 398.564C353.016 400.084 354.656 400.844 356.736 400.844ZM370.122 408.884V381.684H372.522L372.602 387.044L372.162 386.844C372.696 385.004 373.616 383.604 374.922 382.644C376.229 381.684 377.749 381.204 379.482 381.204C381.482 381.204 383.136 381.711 384.442 382.724C385.776 383.711 386.776 385.044 387.442 386.724C388.136 388.378 388.482 390.231 388.482 392.284C388.482 394.338 388.149 396.204 387.482 397.884C386.816 399.538 385.816 400.871 384.482 401.884C383.149 402.871 381.482 403.364 379.482 403.364C378.309 403.364 377.216 403.138 376.202 402.684C375.216 402.204 374.376 401.564 373.682 400.764C373.016 399.964 372.562 399.058 372.322 398.044L372.762 397.524V408.884H370.122ZM379.282 400.844C381.256 400.844 382.816 400.084 383.962 398.564C385.109 397.044 385.682 394.951 385.682 392.284C385.682 389.618 385.109 387.524 383.962 386.004C382.816 384.484 381.242 383.724 379.242 383.724C377.936 383.724 376.789 384.071 375.802 384.764C374.842 385.431 374.096 386.404 373.562 387.684C373.029 388.964 372.762 390.498 372.762 392.284C372.762 394.071 373.029 395.604 373.562 396.884C374.096 398.164 374.856 399.151 375.842 399.844C376.829 400.511 377.976 400.844 379.282 400.844ZM400.528 403.364C398.501 403.364 396.781 402.898 395.368 401.964C393.955 401.004 392.861 399.698 392.088 398.044C391.341 396.364 390.968 394.444 390.968 392.284C390.968 390.124 391.341 388.218 392.088 386.564C392.835 384.884 393.901 383.578 395.288 382.644C396.701 381.684 398.395 381.204 400.368 381.204C402.261 381.204 403.901 381.658 405.288 382.564C406.675 383.471 407.728 384.751 408.448 386.404C409.195 388.058 409.568 389.991 409.568 392.204V393.044H393.728C393.835 395.551 394.488 397.484 395.688 398.844C396.888 400.178 398.501 400.844 400.528 400.844C402.075 400.844 403.341 400.471 404.328 399.724C405.315 398.978 405.995 397.991 406.368 396.764L409.208 396.964C408.675 398.831 407.648 400.364 406.128 401.564C404.608 402.764 402.741 403.364 400.528 403.364ZM393.728 390.684H406.688C406.555 388.418 405.928 386.698 404.808 385.524C403.688 384.324 402.208 383.724 400.368 383.724C398.528 383.724 397.021 384.324 395.848 385.524C394.675 386.724 393.968 388.444 393.728 390.684ZM413.483 402.884V381.684H415.763L415.923 387.484L415.563 387.284C415.91 385.391 416.536 383.991 417.443 383.084C418.35 382.151 419.603 381.684 421.203 381.684H423.043V384.244H421.123C420.056 384.244 419.15 384.484 418.403 384.964C417.656 385.418 417.083 386.071 416.683 386.924C416.31 387.778 416.123 388.791 416.123 389.964V402.884H413.483ZM431.252 403.364C429.119 403.364 427.412 402.858 426.132 401.844C424.852 400.804 424.212 399.404 424.212 397.644C424.212 395.884 424.772 394.498 425.892 393.484C427.012 392.471 428.652 391.764 430.812 391.364L438.652 389.884C438.652 387.778 438.199 386.231 437.292 385.244C436.385 384.231 435.012 383.724 433.172 383.724C431.545 383.724 430.252 384.111 429.292 384.884C428.332 385.658 427.692 386.751 427.372 388.164L424.572 387.924C424.972 385.871 425.905 384.244 427.372 383.044C428.865 381.818 430.799 381.204 433.172 381.204C435.812 381.204 437.825 381.951 439.212 383.444C440.599 384.938 441.292 387.071 441.292 389.844V398.684C441.292 399.404 441.399 399.898 441.612 400.164C441.852 400.404 442.225 400.524 442.732 400.524H443.372V402.884C443.265 402.911 443.105 402.924 442.892 402.924C442.705 402.951 442.505 402.964 442.292 402.964C441.465 402.964 440.772 402.818 440.212 402.524C439.679 402.231 439.279 401.751 439.012 401.084C438.772 400.418 438.652 399.498 438.652 398.324L438.972 398.364C438.732 399.298 438.239 400.151 437.492 400.924C436.772 401.671 435.865 402.271 434.772 402.724C433.679 403.151 432.505 403.364 431.252 403.364ZM431.492 401.004C432.959 401.004 434.225 400.711 435.292 400.124C436.359 399.538 437.185 398.751 437.772 397.764C438.359 396.751 438.652 395.618 438.652 394.364V392.244L431.372 393.604C429.852 393.898 428.732 394.351 428.012 394.964C427.319 395.578 426.972 396.391 426.972 397.404C426.972 398.551 427.372 399.444 428.172 400.084C428.972 400.698 430.079 401.004 431.492 401.004ZM452.76 402.884C451.026 402.884 449.746 402.484 448.92 401.684C448.093 400.858 447.68 399.604 447.68 397.924V376.724H450.32V397.844C450.32 398.831 450.533 399.524 450.96 399.924C451.413 400.324 452.093 400.524 453 400.524H455.8V402.884H452.76ZM444.36 384.044V381.684H455.8V384.044H444.36ZM459.482 402.884V381.684H462.122V402.884H459.482ZM459.402 378.164V374.604H462.202V378.164H459.402ZM475.472 403.364C473.552 403.364 471.872 402.911 470.432 402.004C469.018 401.098 467.925 399.818 467.152 398.164C466.378 396.484 465.992 394.524 465.992 392.284C465.992 390.018 466.378 388.058 467.152 386.404C467.925 384.751 469.018 383.471 470.432 382.564C471.872 381.658 473.552 381.204 475.472 381.204C477.392 381.204 479.058 381.658 480.472 382.564C481.885 383.471 482.978 384.751 483.752 386.404C484.525 388.058 484.912 390.018 484.912 392.284C484.912 394.524 484.525 396.484 483.752 398.164C482.978 399.818 481.885 401.098 480.472 402.004C479.058 402.911 477.392 403.364 475.472 403.364ZM475.472 400.844C477.552 400.844 479.178 400.084 480.352 398.564C481.552 397.018 482.152 394.924 482.152 392.284C482.152 389.644 481.552 387.564 480.352 386.044C479.178 384.498 477.552 383.724 475.472 383.724C473.392 383.724 471.752 384.498 470.552 386.044C469.352 387.564 468.752 389.644 468.752 392.284C468.752 394.924 469.352 397.018 470.552 398.564C471.752 400.084 473.392 400.844 475.472 400.844ZM488.858 402.884V381.684H491.258L491.378 387.244L491.058 387.004C491.271 385.698 491.711 384.618 492.378 383.764C493.071 382.911 493.911 382.271 494.898 381.844C495.885 381.418 496.951 381.204 498.098 381.204C499.725 381.204 501.058 381.564 502.098 382.284C503.165 383.004 503.951 383.978 504.458 385.204C504.965 386.404 505.218 387.751 505.218 389.244V402.884H502.578V390.204C502.578 388.818 502.405 387.631 502.058 386.644C501.738 385.658 501.205 384.898 500.458 384.364C499.711 383.831 498.738 383.564 497.538 383.564C495.725 383.564 494.258 384.151 493.138 385.324C492.045 386.498 491.498 388.124 491.498 390.204V402.884H488.858ZM518.039 403.364C516.199 403.364 514.626 403.071 513.319 402.484C512.039 401.871 511.039 401.031 510.319 399.964C509.599 398.898 509.186 397.698 509.079 396.364L511.839 396.164C511.999 397.578 512.586 398.711 513.599 399.564C514.639 400.418 516.119 400.844 518.039 400.844C519.719 400.844 521.026 400.564 521.959 400.004C522.892 399.444 523.359 398.578 523.359 397.404C523.359 396.764 523.212 396.231 522.919 395.804C522.652 395.351 522.092 394.964 521.239 394.644C520.386 394.298 519.106 393.978 517.399 393.684C515.399 393.311 513.839 392.871 512.719 392.364C511.599 391.831 510.812 391.178 510.359 390.404C509.906 389.604 509.679 388.658 509.679 387.564C509.679 385.671 510.359 384.138 511.719 382.964C513.079 381.791 514.972 381.204 517.399 381.204C519.052 381.204 520.452 381.511 521.599 382.124C522.772 382.738 523.692 383.551 524.359 384.564C525.026 385.551 525.466 386.644 525.679 387.844L522.919 388.084C522.759 387.258 522.452 386.524 521.999 385.884C521.546 385.218 520.932 384.698 520.159 384.324C519.386 383.924 518.452 383.724 517.359 383.724C515.759 383.724 514.532 384.071 513.679 384.764C512.852 385.431 512.439 386.324 512.439 387.444C512.439 388.218 512.612 388.858 512.959 389.364C513.306 389.844 513.879 390.244 514.679 390.564C515.479 390.858 516.586 391.124 517.999 391.364C520.106 391.711 521.746 392.151 522.919 392.684C524.119 393.191 524.959 393.831 525.439 394.604C525.919 395.351 526.159 396.271 526.159 397.364C526.159 398.644 525.812 399.738 525.119 400.644C524.426 401.524 523.466 402.204 522.239 402.684C521.039 403.138 519.639 403.364 518.039 403.364ZM541.861 402.884V379.484C541.861 377.964 542.288 376.751 543.141 375.844C543.995 374.938 545.315 374.484 547.101 374.484H550.141V376.844H547.301C546.341 376.844 545.635 377.098 545.181 377.604C544.728 378.084 544.501 378.778 544.501 379.684V402.884H541.861ZM538.861 384.044V381.684H549.941V384.044H538.861ZM560.573 403.364C558.653 403.364 556.973 402.911 555.533 402.004C554.12 401.098 553.026 399.818 552.253 398.164C551.48 396.484 551.093 394.524 551.093 392.284C551.093 390.018 551.48 388.058 552.253 386.404C553.026 384.751 554.12 383.471 555.533 382.564C556.973 381.658 558.653 381.204 560.573 381.204C562.493 381.204 564.16 381.658 565.573 382.564C566.986 383.471 568.08 384.751 568.853 386.404C569.626 388.058 570.013 390.018 570.013 392.284C570.013 394.524 569.626 396.484 568.853 398.164C568.08 399.818 566.986 401.098 565.573 402.004C564.16 402.911 562.493 403.364 560.573 403.364ZM560.573 400.844C562.653 400.844 564.28 400.084 565.453 398.564C566.653 397.018 567.253 394.924 567.253 392.284C567.253 389.644 566.653 387.564 565.453 386.044C564.28 384.498 562.653 383.724 560.573 383.724C558.493 383.724 556.853 384.498 555.653 386.044C554.453 387.564 553.853 389.644 553.853 392.284C553.853 394.924 554.453 397.018 555.653 398.564C556.853 400.084 558.493 400.844 560.573 400.844ZM573.96 402.884V381.684H576.24L576.4 387.484L576.04 387.284C576.386 385.391 577.013 383.991 577.92 383.084C578.826 382.151 580.08 381.684 581.68 381.684H583.52V384.244H581.6C580.533 384.244 579.626 384.484 578.88 384.964C578.133 385.418 577.56 386.071 577.16 386.924C576.786 387.778 576.6 388.791 576.6 389.964V402.884H573.96ZM604.447 402.884C602.714 402.884 601.434 402.484 600.607 401.684C599.781 400.858 599.367 399.604 599.367 397.924V376.724H602.007V397.844C602.007 398.831 602.221 399.524 602.647 399.924C603.101 400.324 603.781 400.524 604.687 400.524H607.487V402.884H604.447ZM596.047 384.044V381.684H607.487V384.044H596.047ZM611.169 402.884V374.484H613.809V386.724L613.489 386.684C613.702 385.431 614.129 384.404 614.769 383.604C615.436 382.804 616.262 382.204 617.249 381.804C618.236 381.404 619.316 381.204 620.489 381.204C622.036 381.204 623.329 381.551 624.369 382.244C625.409 382.938 626.196 383.898 626.729 385.124C627.262 386.324 627.529 387.698 627.529 389.244V402.884H624.889V390.204C624.889 388.071 624.489 386.431 623.689 385.284C622.889 384.138 621.622 383.564 619.889 383.564C618.022 383.564 616.542 384.164 615.449 385.364C614.356 386.538 613.809 388.164 613.809 390.244V402.884H611.169ZM640.95 403.364C638.923 403.364 637.203 402.898 635.79 401.964C634.377 401.004 633.283 399.698 632.51 398.044C631.763 396.364 631.39 394.444 631.39 392.284C631.39 390.124 631.763 388.218 632.51 386.564C633.257 384.884 634.323 383.578 635.71 382.644C637.123 381.684 638.817 381.204 640.79 381.204C642.683 381.204 644.323 381.658 645.71 382.564C647.097 383.471 648.15 384.751 648.87 386.404C649.617 388.058 649.99 389.991 649.99 392.204V393.044H634.15C634.257 395.551 634.91 397.484 636.11 398.844C637.31 400.178 638.923 400.844 640.95 400.844C642.497 400.844 643.763 400.471 644.75 399.724C645.737 398.978 646.417 397.991 646.79 396.764L649.63 396.964C649.097 398.831 648.07 400.364 646.55 401.564C645.03 402.764 643.163 403.364 640.95 403.364ZM634.15 390.684H647.11C646.977 388.418 646.35 386.698 645.23 385.524C644.11 384.324 642.63 383.724 640.79 383.724C638.95 383.724 637.443 384.324 636.27 385.524C635.097 386.724 634.39 388.444 634.15 390.684ZM663.496 402.884V381.684H666.136V402.884H663.496ZM663.416 378.164V374.604H666.216V378.164H663.416ZM672.227 402.884V381.684H674.627L674.747 387.244L674.427 387.004C674.64 385.698 675.08 384.618 675.747 383.764C676.44 382.911 677.28 382.271 678.267 381.844C679.254 381.418 680.32 381.204 681.467 381.204C683.094 381.204 684.427 381.564 685.467 382.284C686.534 383.004 687.32 383.978 687.827 385.204C688.334 386.404 688.587 387.751 688.587 389.244V402.884H685.947V390.204C685.947 388.818 685.774 387.631 685.427 386.644C685.107 385.658 684.574 384.898 683.827 384.364C683.08 383.831 682.107 383.564 680.907 383.564C679.094 383.564 677.627 384.151 676.507 385.324C675.414 386.498 674.867 388.124 674.867 390.204V402.884H672.227ZM701.368 403.364C699.528 403.364 697.941 402.911 696.608 402.004C695.274 401.098 694.248 399.818 693.528 398.164C692.808 396.511 692.448 394.551 692.448 392.284C692.448 390.018 692.808 388.058 693.528 386.404C694.248 384.751 695.274 383.471 696.608 382.564C697.941 381.658 699.528 381.204 701.368 381.204C702.914 381.204 704.288 381.591 705.488 382.364C706.714 383.111 707.608 384.124 708.168 385.404V374.484H710.808V402.884H708.488L708.368 398.924C707.781 400.311 706.848 401.404 705.568 402.204C704.314 402.978 702.914 403.364 701.368 403.364ZM701.808 400.844C703.141 400.844 704.274 400.498 705.208 399.804C706.168 399.084 706.901 398.084 707.408 396.804C707.914 395.498 708.168 393.991 708.168 392.284C708.168 390.578 707.914 389.084 707.408 387.804C706.901 386.524 706.168 385.524 705.208 384.804C704.274 384.084 703.141 383.724 701.808 383.724C699.808 383.724 698.208 384.498 697.008 386.044C695.808 387.564 695.208 389.644 695.208 392.284C695.208 394.898 695.808 396.978 697.008 398.524C698.208 400.071 699.808 400.844 701.808 400.844ZM724.294 403.364C722.267 403.364 720.547 402.898 719.134 401.964C717.72 401.004 716.627 399.698 715.854 398.044C715.107 396.364 714.734 394.444 714.734 392.284C714.734 390.124 715.107 388.218 715.854 386.564C716.6 384.884 717.667 383.578 719.054 382.644C720.467 381.684 722.16 381.204 724.134 381.204C726.027 381.204 727.667 381.658 729.054 382.564C730.44 383.471 731.494 384.751 732.214 386.404C732.96 388.058 733.334 389.991 733.334 392.204V393.044H717.494C717.6 395.551 718.254 397.484 719.454 398.844C720.654 400.178 722.267 400.844 724.294 400.844C725.84 400.844 727.107 400.471 728.094 399.724C729.08 398.978 729.76 397.991 730.134 396.764L732.974 396.964C732.44 398.831 731.414 400.364 729.894 401.564C728.374 402.764 726.507 403.364 724.294 403.364ZM717.494 390.684H730.454C730.32 388.418 729.694 386.698 728.574 385.524C727.454 384.324 725.974 383.724 724.134 383.724C722.294 383.724 720.787 384.324 719.614 385.524C718.44 386.724 717.734 388.444 717.494 390.684ZM737.249 408.884V381.684H739.649L739.729 387.044L739.289 386.844C739.822 385.004 740.742 383.604 742.049 382.644C743.355 381.684 744.875 381.204 746.609 381.204C748.609 381.204 750.262 381.711 751.569 382.724C752.902 383.711 753.902 385.044 754.569 386.724C755.262 388.378 755.609 390.231 755.609 392.284C755.609 394.338 755.275 396.204 754.609 397.884C753.942 399.538 752.942 400.871 751.609 401.884C750.275 402.871 748.609 403.364 746.609 403.364C745.435 403.364 744.342 403.138 743.329 402.684C742.342 402.204 741.502 401.564 740.809 400.764C740.142 399.964 739.689 399.058 739.449 398.044L739.889 397.524V408.884H737.249ZM746.409 400.844C748.382 400.844 749.942 400.084 751.089 398.564C752.235 397.044 752.809 394.951 752.809 392.284C752.809 389.618 752.235 387.524 751.089 386.004C749.942 384.484 748.369 383.724 746.369 383.724C745.062 383.724 743.915 384.071 742.929 384.764C741.969 385.431 741.222 386.404 740.689 387.684C740.155 388.964 739.889 390.498 739.889 392.284C739.889 394.071 740.155 395.604 740.689 396.884C741.222 398.164 741.982 399.151 742.969 399.844C743.955 400.511 745.102 400.844 746.409 400.844ZM767.655 403.364C765.628 403.364 763.908 402.898 762.495 401.964C761.081 401.004 759.988 399.698 759.215 398.044C758.468 396.364 758.095 394.444 758.095 392.284C758.095 390.124 758.468 388.218 759.215 386.564C759.961 384.884 761.028 383.578 762.415 382.644C763.828 381.684 765.521 381.204 767.495 381.204C769.388 381.204 771.028 381.658 772.415 382.564C773.801 383.471 774.855 384.751 775.575 386.404C776.321 388.058 776.695 389.991 776.695 392.204V393.044H760.855C760.961 395.551 761.615 397.484 762.815 398.844C764.015 400.178 765.628 400.844 767.655 400.844C769.201 400.844 770.468 400.471 771.455 399.724C772.441 398.978 773.121 397.991 773.495 396.764L776.335 396.964C775.801 398.831 774.775 400.364 773.255 401.564C771.735 402.764 769.868 403.364 767.655 403.364ZM760.855 390.684H773.815C773.681 388.418 773.055 386.698 771.935 385.524C770.815 384.324 769.335 383.724 767.495 383.724C765.655 383.724 764.148 384.324 762.975 385.524C761.801 386.724 761.095 388.444 760.855 390.684ZM780.61 402.884V381.684H783.01L783.13 387.244L782.81 387.004C783.023 385.698 783.463 384.618 784.13 383.764C784.823 382.911 785.663 382.271 786.65 381.844C787.636 381.418 788.703 381.204 789.85 381.204C791.476 381.204 792.81 381.564 793.85 382.284C794.916 383.004 795.703 383.978 796.21 385.204C796.716 386.404 796.97 387.751 796.97 389.244V402.884H794.33V390.204C794.33 388.818 794.156 387.631 793.81 386.644C793.49 385.658 792.956 384.898 792.21 384.364C791.463 383.831 790.49 383.564 789.29 383.564C787.476 383.564 786.01 384.151 784.89 385.324C783.796 386.498 783.25 388.124 783.25 390.204V402.884H780.61ZM809.751 403.364C807.911 403.364 806.324 402.911 804.991 402.004C803.657 401.098 802.631 399.818 801.911 398.164C801.191 396.511 800.831 394.551 800.831 392.284C800.831 390.018 801.191 388.058 801.911 386.404C802.631 384.751 803.657 383.471 804.991 382.564C806.324 381.658 807.911 381.204 809.751 381.204C811.297 381.204 812.671 381.591 813.871 382.364C815.097 383.111 815.991 384.124 816.551 385.404V374.484H819.191V402.884H816.871L816.751 398.924C816.164 400.311 815.231 401.404 813.951 402.204C812.697 402.978 811.297 403.364 809.751 403.364ZM810.191 400.844C811.524 400.844 812.657 400.498 813.591 399.804C814.551 399.084 815.284 398.084 815.791 396.804C816.297 395.498 816.551 393.991 816.551 392.284C816.551 390.578 816.297 389.084 815.791 387.804C815.284 386.524 814.551 385.524 813.591 384.804C812.657 384.084 811.524 383.724 810.191 383.724C808.191 383.724 806.591 384.498 805.391 386.044C804.191 387.564 803.591 389.644 803.591 392.284C803.591 394.898 804.191 396.978 805.391 398.524C806.591 400.071 808.191 400.844 810.191 400.844ZM832.677 403.364C830.65 403.364 828.93 402.898 827.517 401.964C826.103 401.004 825.01 399.698 824.237 398.044C823.49 396.364 823.117 394.444 823.117 392.284C823.117 390.124 823.49 388.218 824.237 386.564C824.983 384.884 826.05 383.578 827.437 382.644C828.85 381.684 830.543 381.204 832.517 381.204C834.41 381.204 836.05 381.658 837.437 382.564C838.823 383.471 839.877 384.751 840.597 386.404C841.343 388.058 841.717 389.991 841.717 392.204V393.044H825.877C825.983 395.551 826.637 397.484 827.837 398.844C829.037 400.178 830.65 400.844 832.677 400.844C834.223 400.844 835.49 400.471 836.477 399.724C837.463 398.978 838.143 397.991 838.517 396.764L841.357 396.964C840.823 398.831 839.797 400.364 838.277 401.564C836.757 402.764 834.89 403.364 832.677 403.364ZM825.877 390.684H838.837C838.703 388.418 838.077 386.698 836.957 385.524C835.837 384.324 834.357 383.724 832.517 383.724C830.677 383.724 829.17 384.324 827.997 385.524C826.823 386.724 826.117 388.444 825.877 390.684ZM845.632 402.884V381.684H848.032L848.152 387.244L847.832 387.004C848.045 385.698 848.485 384.618 849.152 383.764C849.845 382.911 850.685 382.271 851.672 381.844C852.658 381.418 853.725 381.204 854.872 381.204C856.498 381.204 857.832 381.564 858.872 382.284C859.938 383.004 860.725 383.978 861.232 385.204C861.738 386.404 861.992 387.751 861.992 389.244V402.884H859.352V390.204C859.352 388.818 859.178 387.631 858.832 386.644C858.512 385.658 857.978 384.898 857.232 384.364C856.485 383.831 855.512 383.564 854.312 383.564C852.498 383.564 851.032 384.151 849.912 385.324C848.818 386.498 848.272 388.124 848.272 390.204V402.884H845.632ZM873.443 402.884C871.709 402.884 870.429 402.484 869.603 401.684C868.776 400.858 868.363 399.604 868.363 397.924V376.724H871.003V397.844C871.003 398.831 871.216 399.524 871.643 399.924C872.096 400.324 872.776 400.524 873.683 400.524H876.483V402.884H873.443ZM865.043 384.044V381.684H876.483V384.044H865.043ZM889.599 408.884V381.684H891.999L892.079 387.044L891.639 386.844C892.172 385.004 893.092 383.604 894.399 382.644C895.705 381.684 897.225 381.204 898.959 381.204C900.959 381.204 902.612 381.711 903.919 382.724C905.252 383.711 906.252 385.044 906.919 386.724C907.612 388.378 907.959 390.231 907.959 392.284C907.959 394.338 907.625 396.204 906.959 397.884C906.292 399.538 905.292 400.871 903.959 401.884C902.625 402.871 900.959 403.364 898.959 403.364C897.785 403.364 896.692 403.138 895.679 402.684C894.692 402.204 893.852 401.564 893.159 400.764C892.492 399.964 892.039 399.058 891.799 398.044L892.239 397.524V408.884H889.599ZM898.759 400.844C900.732 400.844 902.292 400.084 903.439 398.564C904.585 397.044 905.159 394.951 905.159 392.284C905.159 389.618 904.585 387.524 903.439 386.004C902.292 384.484 900.719 383.724 898.719 383.724C897.412 383.724 896.265 384.071 895.279 384.764C894.319 385.431 893.572 386.404 893.039 387.684C892.505 388.964 892.239 390.498 892.239 392.284C892.239 394.071 892.505 395.604 893.039 396.884C893.572 398.164 894.332 399.151 895.319 399.844C896.305 400.511 897.452 400.844 898.759 400.844ZM911.885 402.884V381.684H914.165L914.325 387.484L913.965 387.284C914.311 385.391 914.938 383.991 915.845 383.084C916.751 382.151 918.005 381.684 919.605 381.684H921.445V384.244H919.525C918.458 384.244 917.551 384.484 916.805 384.964C916.058 385.418 915.485 386.071 915.085 386.924C914.711 387.778 914.525 388.791 914.525 389.964V402.884H911.885ZM929.653 403.364C927.52 403.364 925.813 402.858 924.533 401.844C923.253 400.804 922.613 399.404 922.613 397.644C922.613 395.884 923.173 394.498 924.293 393.484C925.413 392.471 927.053 391.764 929.213 391.364L937.053 389.884C937.053 387.778 936.6 386.231 935.693 385.244C934.787 384.231 933.413 383.724 931.573 383.724C929.947 383.724 928.653 384.111 927.693 384.884C926.733 385.658 926.093 386.751 925.773 388.164L922.973 387.924C923.373 385.871 924.307 384.244 925.773 383.044C927.267 381.818 929.2 381.204 931.573 381.204C934.213 381.204 936.227 381.951 937.613 383.444C939 384.938 939.693 387.071 939.693 389.844V398.684C939.693 399.404 939.8 399.898 940.013 400.164C940.253 400.404 940.627 400.524 941.133 400.524H941.773V402.884C941.667 402.911 941.507 402.924 941.293 402.924C941.107 402.951 940.907 402.964 940.693 402.964C939.867 402.964 939.173 402.818 938.613 402.524C938.08 402.231 937.68 401.751 937.413 401.084C937.173 400.418 937.053 399.498 937.053 398.324L937.373 398.364C937.133 399.298 936.64 400.151 935.893 400.924C935.173 401.671 934.267 402.271 933.173 402.724C932.08 403.151 930.907 403.364 929.653 403.364ZM929.893 401.004C931.36 401.004 932.627 400.711 933.693 400.124C934.76 399.538 935.587 398.751 936.173 397.764C936.76 396.751 937.053 395.618 937.053 394.364V392.244L929.773 393.604C928.253 393.898 927.133 394.351 926.413 394.964C925.72 395.578 925.373 396.391 925.373 397.404C925.373 398.551 925.773 399.444 926.573 400.084C927.373 400.698 928.48 401.004 929.893 401.004ZM952.973 403.364C951 403.364 949.306 402.898 947.893 401.964C946.48 401.004 945.386 399.698 944.613 398.044C943.866 396.364 943.493 394.444 943.493 392.284C943.493 390.124 943.866 388.218 944.613 386.564C945.386 384.884 946.48 383.578 947.893 382.644C949.306 381.684 951 381.204 952.973 381.204C954.6 381.204 956.026 381.498 957.253 382.084C958.48 382.671 959.48 383.511 960.253 384.604C961.026 385.698 961.546 386.991 961.813 388.484L959.053 388.644C958.733 387.071 958.04 385.858 956.973 385.004C955.933 384.151 954.6 383.724 952.973 383.724C950.893 383.724 949.253 384.498 948.053 386.044C946.853 387.564 946.253 389.644 946.253 392.284C946.253 394.924 946.853 397.018 948.053 398.564C949.253 400.084 950.893 400.844 952.973 400.844C954.6 400.844 955.946 400.391 957.013 399.484C958.106 398.551 958.8 397.218 959.093 395.484L961.853 395.684C961.586 397.231 961.053 398.578 960.253 399.724C959.48 400.871 958.48 401.764 957.253 402.404C956.026 403.044 954.6 403.364 952.973 403.364ZM971.846 402.884C970.112 402.884 968.832 402.484 968.006 401.684C967.179 400.858 966.766 399.604 966.766 397.924V376.724H969.406V397.844C969.406 398.831 969.619 399.524 970.046 399.924C970.499 400.324 971.179 400.524 972.086 400.524H974.886V402.884H971.846ZM963.446 384.044V381.684H974.886V384.044H963.446ZM978.567 402.884V381.684H981.207V402.884H978.567ZM978.487 378.164V374.604H981.287V378.164H978.487ZM994.557 403.364C992.584 403.364 990.891 402.898 989.477 401.964C988.064 401.004 986.971 399.698 986.197 398.044C985.451 396.364 985.077 394.444 985.077 392.284C985.077 390.124 985.451 388.218 986.197 386.564C986.971 384.884 988.064 383.578 989.477 382.644C990.891 381.684 992.584 381.204 994.557 381.204C996.184 381.204 997.611 381.498 998.837 382.084C1000.06 382.671 1001.06 383.511 1001.84 384.604C1002.61 385.698 1003.13 386.991 1003.4 388.484L1000.64 388.644C1000.32 387.071 999.624 385.858 998.557 385.004C997.517 384.151 996.184 383.724 994.557 383.724C992.477 383.724 990.837 384.498 989.637 386.044C988.437 387.564 987.837 389.644 987.837 392.284C987.837 394.924 988.437 397.018 989.637 398.564C990.837 400.084 992.477 400.844 994.557 400.844C996.184 400.844 997.531 400.391 998.597 399.484C999.691 398.551 1000.38 397.218 1000.68 395.484L1003.44 395.684C1003.17 397.231 1002.64 398.578 1001.84 399.724C1001.06 400.871 1000.06 401.764 998.837 402.404C997.611 403.044 996.184 403.364 994.557 403.364ZM1015.09 403.364C1013.06 403.364 1011.34 402.898 1009.93 401.964C1008.51 401.004 1007.42 399.698 1006.65 398.044C1005.9 396.364 1005.53 394.444 1005.53 392.284C1005.53 390.124 1005.9 388.218 1006.65 386.564C1007.39 384.884 1008.46 383.578 1009.85 382.644C1011.26 381.684 1012.95 381.204 1014.93 381.204C1016.82 381.204 1018.46 381.658 1019.85 382.564C1021.23 383.471 1022.29 384.751 1023.01 386.404C1023.75 388.058 1024.13 389.991 1024.13 392.204V393.044H1008.29C1008.39 395.551 1009.05 397.484 1010.25 398.844C1011.45 400.178 1013.06 400.844 1015.09 400.844C1016.63 400.844 1017.9 400.471 1018.89 399.724C1019.87 398.978 1020.55 397.991 1020.93 396.764L1023.77 396.964C1023.23 398.831 1022.21 400.364 1020.69 401.564C1019.17 402.764 1017.3 403.364 1015.09 403.364ZM1008.29 390.684H1021.25C1021.11 388.418 1020.49 386.698 1019.37 385.524C1018.25 384.324 1016.77 383.724 1014.93 383.724C1013.09 383.724 1011.58 384.324 1010.41 385.524C1009.23 386.724 1008.53 388.444 1008.29 390.684ZM1026.99 402.884V399.004H1030.79V402.884H1026.99Z" fill="#1A2318"/>
</svg>
